<?xml version="1.0" encoding="utf-8"?>
<!-- Generator: Adobe Illustrator 15.0.0, SVG Export Plug-In . SVG Version: 6.00 Build 0)  -->
<!DOCTYPE svg PUBLIC "-//W3C//DTD SVG 1.1//EN" "http://www.w3.org/Graphics/SVG/1.1/DTD/svg11.dtd">
<svg version="1.1" id="Layer_1" xmlns="http://www.w3.org/2000/svg" xmlns:xlink="http://www.w3.org/1999/xlink" x="0px" y="0px"
	 width="160.613px" height="39px" viewBox="0 0 160.613 39" enable-background="new 0 0 160.613 39" xml:space="preserve">
<path fill-rule="evenodd" clip-rule="evenodd" fill="#00435F" d="M130.545,20.301c1.015,6.415-1.89,11.703-5.824,14.861
	c-0.851,0.682-3.309,2.11-4.319,0.803c-1.333-1.725,1.577-4,2.108-4.72c1.402-1.895,3.827-7.484,2.511-10.744
	c-0.378-0.936-1.653-1.869-2.511-2.611c-2.064-1.784-3.167-3.224-4.418-5.824c-0.445-0.926-1.464-2.367-1.305-3.815
	c0.06-0.543,0.481-1.591,1.407-1.707c1.411-0.18,1.625,0.877,2.51,2.711c1.538,3.187,6.365,7.456,9.841,3.515
	c1.268-1.438,2.606-4.477,2.811-7.13c0.149-1.93-0.526-4.188,1.406-4.418c3.47-0.414,1.696,8.294,1.205,10.242
	C134.95,15.503,133.314,18.338,130.545,20.301z"/>
<path fill-rule="evenodd" clip-rule="evenodd" fill="#00435F" d="M127.431,6.341c1.989-0.042,3.415,2.229,2.31,4.419
	c-0.825,1.636-3.973,1.478-4.82-0.2C123.889,8.516,125.059,6.393,127.431,6.341z"/>
<g>
	<path fill="#0873A8" d="M21.552,23.468c0.301-0.649,0.649-1.22,1.092-1.568c0.285-0.22,0.76-0.38,1.267-0.38
		c0.57,0,1.109,0.174,1.536,0.603c0.412,0.412,0.586,0.902,0.586,1.679c0,0.887-0.459,2.485-1.932,3.896
		c-1.409,1.376-3.088,2.026-5.779,2.026c-2.518,0-4.481-0.84-6.001-2.375c-2.232-2.233-2.312-4.782-2.312-9.088
		c0-4.308,0.079-6.857,2.312-9.09c1.52-1.536,3.483-2.375,6.001-2.375c2.691,0,4.37,0.649,5.779,2.027
		c1.473,1.408,1.932,3.008,1.932,3.895c0,0.776-0.174,1.267-0.586,1.678c-0.427,0.428-0.966,0.603-1.536,0.603
		c-0.507,0-0.981-0.159-1.267-0.379c-0.443-0.349-0.792-0.919-1.092-1.568c-0.712-1.583-1.774-2.328-3.325-2.328
		c-1.156,0-2.027,0.475-2.676,1.203c-0.934,1.077-1.107,2.312-1.107,6.335c0,4.021,0.174,5.256,1.107,6.332
		c0.649,0.729,1.52,1.202,2.676,1.202C19.778,25.794,20.84,25.051,21.552,23.468z"/>
	<path fill="#0873A8" d="M33.048,27.348c-2.232-2.233-2.312-4.782-2.312-9.088c0-4.308,0.08-6.857,2.312-9.09
		c1.52-1.536,3.436-2.375,6.049-2.375c2.612,0,4.528,0.839,6.048,2.375c2.232,2.232,2.311,4.782,2.311,9.09
		c0,4.306-0.079,6.854-2.311,9.088c-1.521,1.535-3.437,2.375-6.048,2.375C36.483,29.723,34.568,28.883,33.048,27.348z
		 M36.262,11.925c-0.839,0.951-1.092,2.027-1.092,6.335c0,4.306,0.253,5.366,1.092,6.316c0.634,0.712,1.631,1.218,2.834,1.218
		c1.204,0,2.201-0.506,2.834-1.218c0.84-0.95,1.093-2.011,1.093-6.316c0-4.308-0.253-5.384-1.093-6.335
		c-0.633-0.729-1.63-1.203-2.834-1.203C37.894,10.722,36.896,11.196,36.262,11.925z"/>
	<path fill="#0873A8" d="M69.465,26.145c0.428,1.141,0.681,1.979-0.11,2.832c-0.412,0.445-0.998,0.682-1.584,0.682
		c-0.49,0-0.886-0.143-1.218-0.411c-0.38-0.317-0.555-0.647-0.934-1.662l-0.745-2.042h-8.803l-0.745,2.042
		c-0.38,1.015-0.555,1.345-0.934,1.662c-0.333,0.269-0.728,0.411-1.219,0.411c-0.586,0-1.172-0.236-1.583-0.682
		c-0.792-0.853-0.539-1.691-0.111-2.832l6.507-17.259c0.317-0.823,0.555-1.188,0.902-1.489c0.428-0.379,0.903-0.538,1.583-0.538
		c0.681,0,1.156,0.159,1.583,0.538c0.349,0.301,0.587,0.666,0.903,1.489L69.465,26.145z M57.448,21.837h6.048l-3.024-8.187
		L57.448,21.837z"/>
	<path fill="#0873A8" d="M85.031,23.468c0.302-0.649,0.649-1.22,1.093-1.568c0.285-0.22,0.76-0.38,1.266-0.38
		c0.57,0,1.109,0.174,1.537,0.603c0.412,0.412,0.586,0.902,0.586,1.679c0,0.887-0.459,2.485-1.932,3.896
		c-1.409,1.376-3.087,2.026-5.779,2.026c-2.518,0-4.481-0.84-6.001-2.375c-2.232-2.233-2.312-4.782-2.312-9.088
		c0-4.308,0.079-6.857,2.312-9.09c1.52-1.536,3.483-2.375,6.001-2.375c2.692,0,4.371,0.649,5.779,2.027
		c1.473,1.408,1.932,3.008,1.932,3.895c0,0.776-0.174,1.267-0.586,1.678c-0.427,0.428-0.966,0.603-1.537,0.603
		c-0.506,0-0.981-0.159-1.266-0.379c-0.444-0.349-0.791-0.919-1.093-1.568c-0.711-1.583-1.773-2.328-3.325-2.328
		c-1.156,0-2.027,0.475-2.676,1.203c-0.934,1.077-1.108,2.312-1.108,6.335c0,4.021,0.174,5.256,1.108,6.332
		c0.649,0.729,1.521,1.202,2.676,1.202C83.258,25.794,84.32,25.051,85.031,23.468z"/>
	<path fill="#0873A8" d="M99.767,26.683c0,1.028-0.032,1.393-0.301,1.932c-0.332,0.617-1.044,1.044-1.915,1.044
		s-1.584-0.427-1.917-1.044c-0.27-0.539-0.3-0.903-0.3-1.932V9.836c0-1.03,0.031-1.394,0.3-1.933
		c0.332-0.618,1.045-1.045,1.917-1.045s1.583,0.427,1.915,1.045c0.27,0.539,0.301,0.902,0.301,1.933v6.333h7.632V9.836
		c0-1.03,0.032-1.394,0.301-1.933c0.333-0.618,1.044-1.045,1.916-1.045c0.871,0,1.583,0.427,1.916,1.045
		c0.27,0.539,0.301,0.902,0.301,1.933v16.847c0,1.028-0.031,1.393-0.301,1.932c-0.333,0.617-1.045,1.044-1.916,1.044
		c-0.871,0-1.583-0.427-1.916-1.044c-0.27-0.539-0.301-0.903-0.301-1.932v-6.587h-7.632V26.683z"/>
	<path fill="#0873A8" d="M155.328,26.145c0.428,1.141,0.682,1.979-0.11,2.832c-0.411,0.445-0.997,0.682-1.583,0.682
		c-0.492,0-0.887-0.143-1.22-0.411c-0.379-0.317-0.553-0.647-0.934-1.662l-0.745-2.042h-8.803l-0.744,2.042
		c-0.381,1.015-0.555,1.345-0.935,1.662c-0.332,0.269-0.728,0.411-1.219,0.411c-0.586,0-1.17-0.236-1.583-0.682
		c-0.792-0.853-0.54-1.691-0.112-2.832l6.507-17.259c0.317-0.823,0.555-1.188,0.903-1.489c0.428-0.379,0.902-0.538,1.583-0.538
		c0.681,0,1.157,0.159,1.584,0.538c0.348,0.301,0.586,0.666,0.902,1.489L155.328,26.145z M143.311,21.837h6.048l-3.024-8.187
		L143.311,21.837z"/>
</g>
</svg>
