<?xml version="1.0" encoding="utf-8"?>
<!-- Generator: Adobe Illustrator 15.0.0, SVG Export Plug-In . SVG Version: 6.00 Build 0)  -->
<!DOCTYPE svg PUBLIC "-//W3C//DTD SVG 1.1//EN" "http://www.w3.org/Graphics/SVG/1.1/DTD/svg11.dtd">
<svg version="1.1" id="Layer_1" xmlns="http://www.w3.org/2000/svg" xmlns:xlink="http://www.w3.org/1999/xlink" x="0px" y="0px"
	 width="160.613px" height="39px" viewBox="0 0 160.613 39" enable-background="new 0 0 160.613 39" xml:space="preserve">
<path fill="#FFFFFF" d="M130.545,20.301c1.016,6.415-1.89,11.703-5.823,14.861c-0.852,0.682-3.31,2.109-4.319,0.803
	c-1.333-1.725,1.577-4,2.107-4.72c1.402-1.896,3.827-7.484,2.512-10.744c-0.378-0.936-1.653-1.869-2.512-2.611
	c-2.063-1.784-3.167-3.224-4.418-5.824c-0.444-0.926-1.464-2.367-1.305-3.815c0.061-0.543,0.481-1.591,1.407-1.707
	c1.411-0.18,1.625,0.877,2.51,2.711c1.538,3.187,6.365,7.456,9.841,3.515c1.269-1.438,2.606-4.477,2.812-7.13
	c0.148-1.93-0.526-4.188,1.406-4.418c3.47-0.414,1.695,8.294,1.204,10.242C134.95,15.503,133.314,18.338,130.545,20.301z"/>
<path fill="#FFFFFF" d="M127.431,6.341c1.988-0.042,3.415,2.229,2.31,4.419c-0.825,1.636-3.973,1.478-4.82-0.2
	C123.889,8.516,125.059,6.393,127.431,6.341z"/>
<g>
	<path fill="#FFFFFF" d="M21.552,23.468c0.302-0.649,0.649-1.22,1.093-1.567c0.285-0.221,0.76-0.381,1.267-0.381
		c0.57,0,1.109,0.174,1.536,0.604c0.412,0.412,0.586,0.902,0.586,1.679c0,0.888-0.459,2.485-1.932,3.896
		c-1.409,1.376-3.088,2.026-5.779,2.026c-2.518,0-4.481-0.841-6.001-2.375c-2.232-2.233-2.312-4.783-2.312-9.089
		c0-4.308,0.079-6.857,2.312-9.09c1.52-1.536,3.483-2.375,6.001-2.375c2.691,0,4.37,0.649,5.779,2.027
		c1.473,1.408,1.932,3.008,1.932,3.895c0,0.776-0.174,1.267-0.586,1.678c-0.427,0.428-0.966,0.603-1.536,0.603
		c-0.507,0-0.98-0.159-1.267-0.379c-0.443-0.349-0.792-0.919-1.093-1.568c-0.712-1.583-1.773-2.328-3.324-2.328
		c-1.156,0-2.027,0.475-2.677,1.203c-0.934,1.077-1.106,2.312-1.106,6.335c0,4.021,0.174,5.255,1.106,6.332
		c0.649,0.729,1.521,1.202,2.677,1.202C19.778,25.794,20.84,25.051,21.552,23.468z"/>
	<path fill="#FFFFFF" d="M33.048,27.348c-2.231-2.232-2.312-4.781-2.312-9.088c0-4.308,0.08-6.857,2.312-9.09
		c1.521-1.536,3.437-2.375,6.05-2.375c2.611,0,4.527,0.839,6.048,2.375c2.231,2.232,2.311,4.782,2.311,9.09
		c0,4.307-0.079,6.854-2.311,9.088c-1.521,1.535-3.438,2.375-6.048,2.375C36.483,29.723,34.568,28.883,33.048,27.348z
		 M36.262,11.925c-0.84,0.951-1.093,2.027-1.093,6.335c0,4.307,0.253,5.366,1.093,6.316c0.634,0.712,1.631,1.218,2.834,1.218
		s2.2-0.506,2.834-1.218c0.84-0.95,1.093-2.012,1.093-6.316c0-4.308-0.253-5.384-1.093-6.335c-0.634-0.729-1.631-1.203-2.834-1.203
		C37.894,10.722,36.896,11.196,36.262,11.925z"/>
	<path fill="#FFFFFF" d="M69.465,26.145c0.429,1.142,0.682,1.979-0.109,2.832c-0.412,0.445-0.998,0.683-1.584,0.683
		c-0.49,0-0.887-0.144-1.218-0.411c-0.381-0.316-0.556-0.646-0.935-1.662l-0.745-2.042h-8.803l-0.745,2.042
		c-0.38,1.016-0.555,1.346-0.934,1.662c-0.333,0.27-0.729,0.411-1.22,0.411c-0.586,0-1.172-0.236-1.583-0.683
		c-0.792-0.853-0.539-1.69-0.11-2.832l6.507-17.259c0.317-0.823,0.555-1.188,0.902-1.489c0.428-0.379,0.902-0.538,1.583-0.538
		s1.155,0.159,1.583,0.538c0.349,0.301,0.587,0.666,0.902,1.489L69.465,26.145z M57.448,21.837h6.048l-3.023-8.187L57.448,21.837z"
		/>
	<path fill="#FFFFFF" d="M85.031,23.468c0.302-0.649,0.649-1.22,1.093-1.567c0.285-0.221,0.76-0.381,1.267-0.381
		c0.569,0,1.108,0.174,1.536,0.604c0.412,0.412,0.587,0.902,0.587,1.679c0,0.888-0.459,2.485-1.933,3.896
		c-1.409,1.376-3.087,2.026-5.779,2.026c-2.518,0-4.48-0.841-6.001-2.375c-2.231-2.233-2.312-4.783-2.312-9.089
		c0-4.308,0.079-6.857,2.312-9.09c1.521-1.536,3.483-2.375,6.001-2.375c2.692,0,4.371,0.649,5.779,2.027
		c1.474,1.408,1.933,3.008,1.933,3.895c0,0.776-0.175,1.267-0.587,1.678c-0.427,0.428-0.966,0.603-1.536,0.603
		c-0.507,0-0.981-0.159-1.267-0.379c-0.443-0.349-0.791-0.919-1.093-1.568c-0.711-1.583-1.773-2.328-3.325-2.328
		c-1.156,0-2.026,0.475-2.676,1.203c-0.934,1.077-1.108,2.312-1.108,6.335c0,4.021,0.175,5.255,1.108,6.332
		c0.649,0.729,1.521,1.202,2.676,1.202C83.258,25.794,84.32,25.051,85.031,23.468z"/>
	<path fill="#FFFFFF" d="M99.767,26.684c0,1.027-0.032,1.393-0.302,1.932c-0.332,0.617-1.044,1.044-1.915,1.044
		c-0.87,0-1.584-0.427-1.917-1.044c-0.27-0.539-0.3-0.903-0.3-1.932V9.836c0-1.03,0.031-1.394,0.3-1.933
		c0.332-0.618,1.046-1.045,1.917-1.045c0.872,0,1.583,0.427,1.915,1.045c0.271,0.539,0.302,0.902,0.302,1.933v6.333h7.632V9.836
		c0-1.03,0.032-1.394,0.301-1.933c0.333-0.618,1.044-1.045,1.916-1.045c0.871,0,1.583,0.427,1.916,1.045
		c0.27,0.539,0.301,0.902,0.301,1.933v16.848c0,1.027-0.03,1.393-0.301,1.932c-0.333,0.617-1.045,1.044-1.916,1.044
		s-1.583-0.427-1.916-1.044c-0.27-0.539-0.301-0.903-0.301-1.932v-6.588h-7.632V26.684z"/>
	<path fill="#FFFFFF" d="M155.328,26.145c0.428,1.142,0.682,1.979-0.11,2.832c-0.41,0.445-0.996,0.683-1.583,0.683
		c-0.491,0-0.887-0.144-1.22-0.411c-0.379-0.316-0.553-0.646-0.934-1.662l-0.745-2.042h-8.803l-0.744,2.042
		c-0.381,1.016-0.556,1.346-0.936,1.662c-0.332,0.27-0.728,0.411-1.219,0.411c-0.586,0-1.17-0.236-1.583-0.683
		c-0.792-0.853-0.54-1.69-0.112-2.832l6.508-17.259c0.316-0.823,0.555-1.188,0.902-1.489c0.429-0.379,0.902-0.538,1.583-0.538
		c0.682,0,1.157,0.159,1.584,0.538c0.349,0.301,0.586,0.666,0.902,1.489L155.328,26.145z M143.311,21.837h6.048l-3.024-8.187
		L143.311,21.837z"/>
</g>
</svg>
